<?xml version="1.0" encoding="UTF-8"?>
<!DOCTYPE svg PUBLIC "-//W3C//DTD SVG 1.1//EN" "http://www.w3.org/Graphics/SVG/1.1/DTD/svg11.dtd">
<!-- Creator: CorelDRAW 2021 (64-Bit) -->
<?xml-stylesheet href="logo-jony.css" type="text/css"?>
<svg xmlns="http://www.w3.org/2000/svg" xml:space="preserve" width="297mm" height="210mm" version="1.1" style="shape-rendering:geometricPrecision; text-rendering:geometricPrecision; image-rendering:optimizeQuality; fill-rule:evenodd; clip-rule:evenodd"
viewBox="0 0 297 210"
 xmlns:xlink="http://www.w3.org/1999/xlink"
 xmlns:xodm="http://www.corel.com/coreldraw/odm/2003">
 <g id="Capa_x0020_1">
  <metadata id="CorelCorpID_0Corel-Layer"/>
  <g id="_1892718140688">
   <path class="fil0" d="M54.0061 52.6923c0,2.6663 -0.6155,4.703 -1.8517,6.119 -1.2314,1.4164 -3.0217,2.1219 -5.3614,2.1219 -1.0469,0 -2.0129,-0.1799 -2.8986,-0.54l0 -4.2056c0.7673,0.5824 1.6245,0.8761 2.5811,0.8761 2.0413,0 3.0643,-1.5201 3.0643,-4.5516l0 -11.8215 4.4663 0 0 12.0017zm68.1925 -8.3547l-5.6787 0 0 16.2499 -4.4945 0 0 -16.2499 -5.6457 0 0 -3.647 15.8189 0 0 3.647zm49.0205 16.2499l0 -19.8969 7.0524 0c7.0665,0 10.5997,3.2302 10.5997,9.6999 0,3.0973 -0.9663,5.5696 -2.8938,7.4216 -1.9276,1.8517 -4.4949,2.7754 -7.7059,2.7754l-7.0524 0zm4.4854 -16.2499l0 12.6126 2.2213 0c1.9416,0 3.4621,-0.5827 4.5703,-1.7476 1.1036,-1.1654 1.6578,-2.7519 1.6578,-4.7601 0,-1.8946 -0.5495,-3.3865 -1.6437,-4.471 -1.0985,-1.0895 -2.633,-1.6339 -4.613,-1.6339l-2.1927 0zm28.4033 16.2499l-11.9356 0 0 -19.8969 11.4761 0 0 3.647 -6.9906 0 0 4.4284 6.5073 0 0 3.6326 -6.5073 0 0 4.5516 7.4501 0 0 3.6373zm19.9013 -19.8969l-6.8581 19.8969 -5.0772 0 -6.7728 -19.8969 4.8312 0 4.1488 13.8487c0.2225,0.7485 0.3551,1.4067 0.4024,1.9847l0.0806 0c0.0664,-0.6206 0.2084,-1.3027 0.4309,-2.0414l4.1206 -13.792 4.6936 0z"/>
   <path class="fil1" d="M64.7053 60.9332c-2.368,0 -4.2294,-0.6629 -5.584,-1.9893 -1.3547,-1.3261 -2.032,-3.1305 -2.032,-5.4038 0,-2.3494 0.7012,-4.1917 2.1078,-5.5178 1.4067,-1.3261 3.3107,-1.9894 5.7025,-1.9894 2.3585,0 4.2106,0.6633 5.5508,1.9894 1.3405,1.3261 2.0128,3.0831 2.0128,5.2668 0,2.3585 -0.6914,4.2246 -2.0743,5.5934 -1.3831,1.3687 -3.2775,2.0507 -5.6836,2.0507zm0.1137 -11.5422c-1.0371,0 -1.8423,0.3554 -2.4155,1.0656 -0.573,0.7153 -0.862,1.7242 -0.862,3.0265 0,2.728 1.1036,4.0921 3.3061,4.0921 2.098,0 3.1492,-1.402 3.1492,-4.2009 0,-2.6572 -1.0606,-3.9833 -3.1778,-3.9833zm24.2116 11.1965l-4.3714 0 0 -7.8952c0,-2.2024 -0.7864,-3.3013 -2.3588,-3.3013 -0.7576,0 -1.3829,0.289 -1.8705,0.8716 -0.4928,0.5824 -0.7391,1.3261 -0.7391,2.2213l0 8.1036 -4.3811 0 0 -14.2089 4.3811 0 0 2.2498 0.057 0c1.0466,-1.7332 2.567,-2.5955 4.5657,-2.5955 3.1446,0 4.7171,1.9514 4.7171,5.8542l0 8.7004zm16.9986 -14.2089l-5.7736 15.3457c-1.3875,3.6893 -3.4762,5.5367 -6.2707,5.5367 -1.0609,0 -1.937,-0.1185 -2.6237,-0.3601l0 -3.4954c0.5871,0.341 1.217,0.5115 1.9038,0.5115 1.1274,0 1.9134,-0.5303 2.3588,-1.5959l0.7482 -1.7621 -5.7733 -14.1804 4.8593 0 2.6475 8.6437c0.1658,0.5354 0.2984,1.17 0.3884,1.9041l0.0567 0c0.0852,-0.5401 0.2369,-1.165 0.4595,-1.8756l2.676 -8.6722 4.3431 0zm28.6306 8.3551l-9.269 0c0.147,2.0601 1.4493,3.0925 3.8981,3.0925 1.5631,0 2.9365,-0.3692 4.1206,-1.1082l0 3.1637c-1.312,0.7011 -3.017,1.0515 -5.1201,1.0515 -2.2921,0 -4.073,-0.6347 -5.3424,-1.9087 -1.2646,-1.2691 -1.8993,-3.0453 -1.8993,-5.3189 0,-2.3585 0.682,-4.2294 2.0558,-5.6075 1.3687,-1.3781 3.0499,-2.0652 5.0486,-2.0652 2.0699,0 3.6752,0.6159 4.8073,1.8427 1.1321,1.2314 1.7004,2.9033 1.7004,5.0107l0 1.8474zm-4.0636 -2.6952c0,-2.0316 -0.8243,-3.0499 -2.4723,-3.0499 -0.7011,0 -1.312,0.2889 -1.8235,0.8713 -0.5162,0.5826 -0.8243,1.312 -0.9378,2.1786l5.2336 0zm11.0542 8.549l-4.381 0 0 -21.0337 4.381 0 0 21.0337zm8.0755 0l-4.3811 0 0 -21.0337 4.3811 0 0 21.0337zm10.4624 0.3457c-2.3679,0 -4.2293,-0.6629 -5.584,-1.9893 -1.3546,-1.3261 -2.0319,-3.1305 -2.0319,-5.4038 0,-2.3494 0.7011,-4.1917 2.1078,-5.5178 1.4067,-1.3261 3.3107,-1.9894 5.7025,-1.9894 2.3585,0 4.2106,0.6633 5.5507,1.9894 1.3406,1.3261 2.0129,3.0831 2.0129,5.2668 0,2.3585 -0.6914,4.2246 -2.0743,5.5934 -1.3831,1.3687 -3.2775,2.0507 -5.6837,2.0507zm0.1138 -11.5422c-1.0371,0 -1.8423,0.3554 -2.4156,1.0656 -0.5729,0.7153 -0.8619,1.7242 -0.8619,3.0265 0,2.728 1.1036,4.0921 3.3061,4.0921 2.098,0 3.1492,-1.402 3.1492,-4.2009 0,-2.6572 -1.0606,-3.9833 -3.1778,-3.9833z"/>
  </g>
 </g>
</svg>
